<mxfile host="app.diagrams.net" modified="2023-10-18T09:20:57.022Z" agent="Mozilla/5.0 (Windows NT 10.0; Win64; x64) AppleWebKit/537.36 (KHTML, like Gecko) Chrome/117.0.0.0 Safari/537.36" etag="-x1XNHVlasfKeyw37qW7" version="22.0.4" type="device">
  <diagram name="Page-1" id="ZD_wO4GdW9WNzEqeQvua">
    <mxGraphModel dx="733" dy="398" grid="1" gridSize="10" guides="1" tooltips="1" connect="1" arrows="1" fold="1" page="1" pageScale="1" pageWidth="850" pageHeight="1100" math="0" shadow="0">
      <root>
        <mxCell id="0" />
        <mxCell id="1" parent="0" />
        <mxCell id="QrfO10kA7FmHQVanBoPY-1" value="&lt;b&gt;&lt;font style=&quot;font-size: 15px;&quot;&gt;Author&lt;/font&gt;&lt;/b&gt;" style="rounded=0;whiteSpace=wrap;html=1;strokeWidth=3;" vertex="1" parent="1">
          <mxGeometry x="180" y="120" width="120" height="60" as="geometry" />
        </mxCell>
        <mxCell id="QrfO10kA7FmHQVanBoPY-2" value="" style="endArrow=none;html=1;rounded=0;strokeWidth=3;exitX=1;exitY=0.5;exitDx=0;exitDy=0;entryX=0;entryY=0.5;entryDx=0;entryDy=0;" edge="1" parent="1" source="QrfO10kA7FmHQVanBoPY-1" target="QrfO10kA7FmHQVanBoPY-3">
          <mxGeometry width="50" height="50" relative="1" as="geometry">
            <mxPoint x="400" y="290" as="sourcePoint" />
            <mxPoint x="520" y="150" as="targetPoint" />
          </mxGeometry>
        </mxCell>
        <mxCell id="QrfO10kA7FmHQVanBoPY-3" value="&lt;font style=&quot;font-size: 15px;&quot;&gt;&lt;b&gt;Book&lt;/b&gt;&lt;/font&gt;" style="rounded=0;whiteSpace=wrap;html=1;strokeWidth=3;" vertex="1" parent="1">
          <mxGeometry x="550" y="120" width="120" height="60" as="geometry" />
        </mxCell>
        <mxCell id="QrfO10kA7FmHQVanBoPY-4" value="" style="endArrow=none;html=1;rounded=0;strokeWidth=3;" edge="1" parent="1">
          <mxGeometry width="50" height="50" relative="1" as="geometry">
            <mxPoint x="324" y="170" as="sourcePoint" />
            <mxPoint x="324" y="130" as="targetPoint" />
          </mxGeometry>
        </mxCell>
        <mxCell id="QrfO10kA7FmHQVanBoPY-6" value="" style="endArrow=none;html=1;rounded=0;strokeWidth=3;exitX=0;exitY=0.75;exitDx=0;exitDy=0;" edge="1" parent="1" source="QrfO10kA7FmHQVanBoPY-3">
          <mxGeometry width="50" height="50" relative="1" as="geometry">
            <mxPoint x="530" y="200" as="sourcePoint" />
            <mxPoint x="520" y="150" as="targetPoint" />
          </mxGeometry>
        </mxCell>
        <mxCell id="QrfO10kA7FmHQVanBoPY-7" value="" style="endArrow=none;html=1;rounded=0;strokeWidth=3;exitX=0;exitY=0.75;exitDx=0;exitDy=0;" edge="1" parent="1">
          <mxGeometry width="50" height="50" relative="1" as="geometry">
            <mxPoint x="550" y="135" as="sourcePoint" />
            <mxPoint x="520" y="150" as="targetPoint" />
          </mxGeometry>
        </mxCell>
        <mxCell id="QrfO10kA7FmHQVanBoPY-13" value="&lt;b&gt;&lt;font style=&quot;font-size: 15px;&quot;&gt;Book&lt;/font&gt;&lt;/b&gt;" style="rounded=0;whiteSpace=wrap;html=1;strokeWidth=3;" vertex="1" parent="1">
          <mxGeometry x="180" y="250" width="120" height="60" as="geometry" />
        </mxCell>
        <mxCell id="QrfO10kA7FmHQVanBoPY-14" value="" style="endArrow=none;html=1;rounded=0;strokeWidth=3;exitX=1;exitY=0.5;exitDx=0;exitDy=0;entryX=0;entryY=0.5;entryDx=0;entryDy=0;" edge="1" parent="1" source="QrfO10kA7FmHQVanBoPY-13" target="QrfO10kA7FmHQVanBoPY-15">
          <mxGeometry width="50" height="50" relative="1" as="geometry">
            <mxPoint x="400" y="420" as="sourcePoint" />
            <mxPoint x="520" y="280" as="targetPoint" />
          </mxGeometry>
        </mxCell>
        <mxCell id="QrfO10kA7FmHQVanBoPY-15" value="&lt;font style=&quot;font-size: 15px;&quot;&gt;&lt;b&gt;Library&lt;/b&gt;&lt;/font&gt;" style="rounded=0;whiteSpace=wrap;html=1;strokeWidth=3;" vertex="1" parent="1">
          <mxGeometry x="550" y="250" width="120" height="60" as="geometry" />
        </mxCell>
        <mxCell id="QrfO10kA7FmHQVanBoPY-16" value="" style="endArrow=none;html=1;rounded=0;strokeWidth=3;" edge="1" parent="1">
          <mxGeometry width="50" height="50" relative="1" as="geometry">
            <mxPoint x="520" y="300" as="sourcePoint" />
            <mxPoint x="520" y="260" as="targetPoint" />
          </mxGeometry>
        </mxCell>
        <mxCell id="QrfO10kA7FmHQVanBoPY-17" value="" style="endArrow=none;html=1;rounded=0;strokeWidth=3;" edge="1" parent="1">
          <mxGeometry width="50" height="50" relative="1" as="geometry">
            <mxPoint x="330" y="280" as="sourcePoint" />
            <mxPoint x="300" y="295" as="targetPoint" />
          </mxGeometry>
        </mxCell>
        <mxCell id="QrfO10kA7FmHQVanBoPY-18" value="" style="endArrow=none;html=1;rounded=0;strokeWidth=3;" edge="1" parent="1">
          <mxGeometry width="50" height="50" relative="1" as="geometry">
            <mxPoint x="330" y="280" as="sourcePoint" />
            <mxPoint x="300" y="265" as="targetPoint" />
          </mxGeometry>
        </mxCell>
        <mxCell id="QrfO10kA7FmHQVanBoPY-19" value="&lt;b&gt;&lt;font style=&quot;font-size: 14px;&quot;&gt;Library Member&lt;/font&gt;&lt;/b&gt;" style="rounded=0;whiteSpace=wrap;html=1;strokeWidth=3;" vertex="1" parent="1">
          <mxGeometry x="180" y="380" width="120" height="60" as="geometry" />
        </mxCell>
        <mxCell id="QrfO10kA7FmHQVanBoPY-20" value="" style="endArrow=none;html=1;rounded=0;strokeWidth=3;exitX=1;exitY=0.5;exitDx=0;exitDy=0;entryX=0;entryY=0.5;entryDx=0;entryDy=0;" edge="1" parent="1" source="QrfO10kA7FmHQVanBoPY-19" target="QrfO10kA7FmHQVanBoPY-21">
          <mxGeometry width="50" height="50" relative="1" as="geometry">
            <mxPoint x="400" y="550" as="sourcePoint" />
            <mxPoint x="520" y="410" as="targetPoint" />
          </mxGeometry>
        </mxCell>
        <mxCell id="QrfO10kA7FmHQVanBoPY-21" value="&lt;b&gt;&lt;font style=&quot;font-size: 14px;&quot;&gt;Borrowed Book&lt;/font&gt;&lt;/b&gt;" style="rounded=0;whiteSpace=wrap;html=1;strokeWidth=3;" vertex="1" parent="1">
          <mxGeometry x="550" y="380" width="120" height="60" as="geometry" />
        </mxCell>
        <mxCell id="QrfO10kA7FmHQVanBoPY-23" value="" style="endArrow=none;html=1;rounded=0;strokeWidth=3;" edge="1" parent="1">
          <mxGeometry width="50" height="50" relative="1" as="geometry">
            <mxPoint x="330" y="410" as="sourcePoint" />
            <mxPoint x="300" y="425" as="targetPoint" />
          </mxGeometry>
        </mxCell>
        <mxCell id="QrfO10kA7FmHQVanBoPY-24" value="" style="endArrow=none;html=1;rounded=0;strokeWidth=3;" edge="1" parent="1">
          <mxGeometry width="50" height="50" relative="1" as="geometry">
            <mxPoint x="330" y="410" as="sourcePoint" />
            <mxPoint x="300" y="395" as="targetPoint" />
          </mxGeometry>
        </mxCell>
        <mxCell id="QrfO10kA7FmHQVanBoPY-25" value="" style="endArrow=none;html=1;rounded=0;strokeWidth=3;exitX=0;exitY=0.75;exitDx=0;exitDy=0;" edge="1" parent="1">
          <mxGeometry width="50" height="50" relative="1" as="geometry">
            <mxPoint x="550" y="425" as="sourcePoint" />
            <mxPoint x="520" y="410" as="targetPoint" />
          </mxGeometry>
        </mxCell>
        <mxCell id="QrfO10kA7FmHQVanBoPY-26" value="" style="endArrow=none;html=1;rounded=0;strokeWidth=3;exitX=0;exitY=0.75;exitDx=0;exitDy=0;" edge="1" parent="1">
          <mxGeometry width="50" height="50" relative="1" as="geometry">
            <mxPoint x="550" y="395" as="sourcePoint" />
            <mxPoint x="520" y="410" as="targetPoint" />
          </mxGeometry>
        </mxCell>
        <mxCell id="QrfO10kA7FmHQVanBoPY-27" value="WroteÂ " style="text;whiteSpace=wrap;align=center;fontStyle=1;fontSize=14;" vertex="1" parent="1">
          <mxGeometry x="360" y="117" width="130" height="40" as="geometry" />
        </mxCell>
        <mxCell id="QrfO10kA7FmHQVanBoPY-28" value="Belongs to" style="text;whiteSpace=wrap;align=center;fontStyle=1;fontSize=14;" vertex="1" parent="1">
          <mxGeometry x="360" y="248" width="130" height="40" as="geometry" />
        </mxCell>
        <mxCell id="QrfO10kA7FmHQVanBoPY-29" value="Borrows" style="text;whiteSpace=wrap;align=center;fontStyle=1;fontSize=14;" vertex="1" parent="1">
          <mxGeometry x="360" y="380" width="130" height="40" as="geometry" />
        </mxCell>
      </root>
    </mxGraphModel>
  </diagram>
</mxfile>
